<svg class="className" xmlns="http://www.w3.org/2000/svg" viewBox="0 0 488.91 500">
    <path d="M182.17,275.85a11.34,11.34,0,0,0-11.35-11.34h-39.6a11.34,11.34,0,0,0-11.34,11.34v39.6a11.34,11.34,0,0,0,11.34,11.34h39.6a11.34,11.34,0,0,0,11.35-11.34v-39.6Z" transform="translate(-5.54)"/>
    <path d="M281.14,275.85a11.34,11.34,0,0,0-11.33-11.34H230.2a11.34,11.34,0,0,0-11.34,11.34v39.6a11.34,11.34,0,0,0,11.34,11.34h39.61a11.34,11.34,0,0,0,11.33-11.34Z" transform="translate(-5.54)"/>
    <path d="M380.12,275.85a11.34,11.34,0,0,0-11.34-11.34h-39.6a11.34,11.34,0,0,0-11.35,11.34v39.6a11.34,11.34,0,0,0,11.35,11.34h39.6a11.34,11.34,0,0,0,11.34-11.34Z" transform="translate(-5.54)"/>
    <path d="M182.17,374.83a11.34,11.34,0,0,0-11.35-11.34h-39.6a11.34,11.34,0,0,0-11.34,11.34v39.59a11.35,11.35,0,0,0,11.34,11.35h39.6a11.35,11.35,0,0,0,11.35-11.35V374.83Z" transform="translate(-5.54)"/>
    <path d="M281.14,374.83a11.34,11.34,0,0,0-11.33-11.34H230.2a11.34,11.34,0,0,0-11.34,11.34v39.59a11.35,11.35,0,0,0,11.34,11.35h39.61a11.34,11.34,0,0,0,11.33-11.35Z" transform="translate(-5.54)"/>
    <path d="M380.12,374.83a11.34,11.34,0,0,0-11.33-11.34H329.18a11.34,11.34,0,0,0-11.35,11.34v39.59a11.35,11.35,0,0,0,11.35,11.35h39.61a11.34,11.34,0,0,0,11.33-11.35V374.83Z" transform="translate(-5.54)"/>
    <path d="M450.94,55.67v60.49a49.4,49.4,0,0,1-49.51,49.36H370.19c-27.33,0-49.8-22-49.8-49.36V55.46H179.61v60.7c0,27.33-22.47,49.36-49.8,49.36H98.57a49.4,49.4,0,0,1-49.51-49.36V55.67A45,45,0,0,0,5.54,100.46V454.92A45,45,0,0,0,50.36,500H449.64c24.72,0,44.82-20.37,44.82-45.08V100.46A45,45,0,0,0,450.94,55.67ZM436.43,432.84a19.38,19.38,0,0,1-19.37,19.38h-335a19.38,19.38,0,0,1-19.38-19.38V249.75a19.38,19.38,0,0,1,19.38-19.38h335a19.38,19.38,0,0,1,19.37,19.38V432.84Z" transform="translate(-5.54)"/>
    <path d="M98.46,133.1h30.9a17,17,0,0,0,17-17V17a17,17,0,0,0-17-17H98.46a17,17,0,0,0-17,17v99.15A17,17,0,0,0,98.46,133.1Z" transform="translate(-5.54)"/>
    <path d="M369.8,133.1h30.89a17,17,0,0,0,17-17V17a17,17,0,0,0-17-17H369.8a17,17,0,0,0-17,17v99.15A17,17,0,0,0,369.8,133.1Z" transform="translate(-5.54)"/>
</svg>