<svg class="className" xmlns="http://www.w3.org/2000/svg" viewBox="0 0 500 498.63">
    <path d="M411.42,323.17a33.62,33.62,0,0,0-24.09-9.49,37.48,37.48,0,0,0-26.19,10.59l-42.59,42.59-11.39-6.3c-25.39-14.09-60-33.29-96.77-70.07s-56.18-71.68-70.27-97l-6.3-11.3,42.78-42.78c14.1-14.3,14.6-36.79,1.1-50.38L98.53,10.18C92.33,4,83.94.69,74.44.69A37.48,37.48,0,0,0,48.25,11.28L28.86,30.78l-1.8,3a124.36,124.36,0,0,0-17.6,31A133.91,133.91,0,0,0,1.57,96.05C-8.63,180.72,30.36,258.4,136.22,364.16,261.57,489.52,366.44,499.31,395.53,499.31c4.9,0,8.1-.4,8.79-.4A126.58,126.58,0,0,0,435.81,491a119.1,119.1,0,0,0,30.79-17.4l4.4-3.5,18.1-17.79c14.09-14.1,14.59-36.59,1.09-50.18Z" transform="translate(0 -0.69)"/>
</svg>