<svg class="className" xmlns="http://www.w3.org/2000/svg" viewBox="0 0 406.25 500">
    <path d="M414.06,62.5H328.13V46.87A46.88,46.88,0,0,0,281.25,0h-62.5a46.88,46.88,0,0,0-46.88,46.87V62.5H85.94a39.07,39.07,0,0,0-39.07,39.06v31.25A15.63,15.63,0,0,0,62.5,148.44h375a15.63,15.63,0,0,0,15.63-15.63V101.56A39.07,39.07,0,0,0,414.06,62.5ZM203.13,46.87a15.64,15.64,0,0,1,15.62-15.62h62.5a15.65,15.65,0,0,1,15.63,15.62V62.5H203.13Z" transform="translate(-46.87)"/>
    <path d="M76.53,179.69a4.88,4.88,0,0,0-4.88,5.11L84.54,455.35A46.82,46.82,0,0,0,131.36,500H368.64a46.82,46.82,0,0,0,46.82-44.65L428.35,184.8a4.88,4.88,0,0,0-4.88-5.11Zm236,39.06a15.63,15.63,0,0,1,31.25,0V421.88a15.63,15.63,0,0,1-31.25,0Zm-78.12,0a15.63,15.63,0,0,1,31.25,0V421.88a15.63,15.63,0,0,1-31.25,0Zm-78.13,0a15.63,15.63,0,0,1,31.25,0V421.88a15.63,15.63,0,0,1-31.25,0Z" transform="translate(-46.87)"/>
</svg>