<svg class="className" xmlns="http://www.w3.org/2000/svg" viewBox="0 0 500 499.95">
    <path d="M254.28,0C118.66,0,8.35,110.34,8.35,245.85A245.26,245.26,0,0,0,40.85,368L.45,489.07a8.15,8.15,0,0,0,1.8,8.3,8.3,8.3,0,0,0,6.1,2.6,7.46,7.46,0,0,0,2.1-.3l132.21-34.8a246.28,246.28,0,0,0,111.52,26.7C389.79,491.57,500,381.26,500,245.75S389.79,0,254.28,0ZM407.69,357.56l-14.6,14.7c-18.5,18.5-39.1,27.9-61.31,27.9h0c-29.9,0-62.2-17.1-95.91-50.8L151,264.45c-26.61-26.6-42.91-52.4-48.51-76.71-6.8-29.6,1.8-56.6,25.6-80.5l14.7-14.71A31.75,31.75,0,0,1,179.27,87c22.2,11.7,45.2,50.21,47.7,54.61,4.6,8.1,6,16.4,4,23.5a21.27,21.27,0,0,1-9.9,12.9c-6.7,5.6-14.6,12.6-16,14.4-8.5,12.51-7.5,22.11,3.4,33l66.41,66.4c11,11,20.4,11.91,33.1,3.3,1.7-1.3,8.7-9.2,14.3-15.9,4.2-7,11.1-10.8,19.5-10.8a35.32,35.32,0,0,1,16.91,4.8c4.4,2.6,42.9,25.6,54.6,47.81A31.13,31.13,0,0,1,407.69,357.56Z" transform="translate(0 -0.03)"/>
</svg>